<svg id="svg" xmlns="http://www.w3.org/2000/svg" xmlns:xlink="http://www.w3.org/1999/xlink" width="400" height="100" viewBox="0, 0, 400,100" version="1.1"><g id="svgg"><path id="path0" d="M218.000 10.613 C 216.671 10.635,213.221 10.730,210.333 10.826 C 207.446 10.922,194.208 11.013,180.917 11.029 C 155.999 11.058,143.887 11.178,134.500 11.488 C 131.521 11.586,126.008 11.743,122.250 11.837 C 118.492 11.931,114.742 12.043,113.917 12.085 C 109.996 12.284,50.680 12.360,48.583 12.168 C 45.281 11.865,32.872 11.744,31.423 12.000 C 27.239 12.739,26.809 15.889,30.720 17.144 C 31.661 17.447,32.367 17.482,38.917 17.560 C 42.858 17.607,47.283 17.733,48.750 17.841 C 51.332 18.030,103.336 17.952,111.083 17.748 C 112.733 17.704,117.871 17.591,122.500 17.496 C 127.129 17.401,133.429 17.209,136.500 17.068 C 140.810 16.871,150.162 16.778,177.500 16.661 C 196.979 16.577,215.467 16.426,218.583 16.326 C 222.342 16.205,248.434 16.129,296.083 16.102 C 349.735 16.071,368.111 16.011,368.686 15.868 C 372.326 14.957,372.906 12.387,369.790 10.978 L 368.917 10.583 294.667 10.579 C 253.829 10.576,219.329 10.591,218.000 10.613 M115.667 22.994 C 115.529 23.072,115.098 23.221,114.708 23.325 C 113.674 23.600,113.559 23.895,113.342 26.833 C 113.237 28.254,113.085 29.604,113.004 29.833 C 112.923 30.063,112.694 32.987,112.495 36.333 C 112.297 39.679,112.071 42.567,111.993 42.750 C 111.916 42.933,111.731 45.371,111.583 48.167 C 111.435 50.962,111.239 54.262,111.149 55.500 C 110.841 59.735,110.702 63.251,110.685 67.267 L 110.667 71.285 111.077 71.727 C 111.810 72.518,113.502 72.821,115.370 72.496 C 117.413 72.140,117.579 71.807,117.741 67.734 C 117.803 66.184,117.922 64.767,118.007 64.583 C 118.091 64.400,118.351 60.200,118.583 55.250 C 118.816 50.300,119.110 44.262,119.238 41.833 C 119.648 34.007,119.885 24.634,119.686 24.122 C 119.502 23.650,119.002 23.374,118.042 23.214 C 117.744 23.164,117.500 23.058,117.500 22.978 C 117.500 22.793,115.998 22.807,115.667 22.994 M138.099 23.229 C 137.413 23.609,137.198 23.955,137.178 24.711 C 137.172 24.964,137.097 25.301,137.011 25.461 C 136.818 25.818,136.563 28.923,136.330 33.750 C 136.233 35.767,136.082 37.679,135.996 38.000 C 135.910 38.321,135.717 41.433,135.568 44.917 C 135.419 48.400,135.231 52.450,135.151 53.917 C 134.261 70.173,134.219 73.667,134.911 73.667 C 135.038 73.667,135.274 73.798,135.435 73.958 C 135.854 74.377,139.135 74.389,139.551 73.973 C 139.703 73.821,139.915 73.667,140.022 73.631 C 140.129 73.596,140.251 73.158,140.293 72.658 L 140.368 71.750 143.059 71.739 C 145.563 71.729,148.206 71.378,148.500 71.017 C 148.546 70.960,148.996 70.773,149.500 70.602 C 150.004 70.430,150.492 70.204,150.583 70.100 C 150.675 69.996,151.067 69.770,151.453 69.599 C 151.840 69.427,152.283 69.148,152.438 68.977 C 152.592 68.806,152.812 68.667,152.927 68.667 C 153.240 68.667,157.500 64.392,157.500 64.077 C 157.500 63.989,157.673 63.716,157.884 63.471 C 158.095 63.225,158.414 62.738,158.592 62.387 C 158.771 62.037,158.967 61.711,159.029 61.664 C 159.233 61.510,160.627 58.429,160.745 57.875 C 160.808 57.577,160.917 57.333,160.987 57.333 C 161.057 57.333,161.283 56.640,161.491 55.792 C 161.698 54.944,161.928 54.175,162.002 54.083 C 162.162 53.886,162.435 52.445,162.791 49.917 C 163.092 47.773,163.257 40.914,163.019 40.418 C 162.931 40.234,162.813 39.573,162.757 38.949 C 162.639 37.632,162.189 35.326,162.002 35.083 C 161.931 34.992,161.753 34.495,161.605 33.980 C 161.339 33.052,160.238 30.660,160.002 30.500 C 159.935 30.454,159.753 30.169,159.598 29.866 C 159.443 29.564,159.207 29.275,159.075 29.224 C 158.942 29.173,158.833 29.036,158.833 28.920 C 158.833 28.627,156.390 26.333,156.078 26.333 C 155.937 26.333,155.781 26.225,155.730 26.092 C 155.679 25.959,155.138 25.692,154.527 25.497 C 153.916 25.302,153.237 25.054,153.016 24.946 C 152.474 24.680,147.859 24.681,147.317 24.946 C 147.097 25.055,146.496 25.293,145.983 25.477 C 144.981 25.835,143.966 26.428,143.399 26.987 C 143.206 27.178,142.987 27.333,142.912 27.333 C 142.837 27.333,142.639 27.457,142.471 27.609 C 142.178 27.875,142.167 27.819,142.167 26.108 C 142.167 24.125,141.860 23.476,140.816 23.246 C 140.552 23.188,140.294 23.072,140.242 22.987 C 140.072 22.712,138.767 22.860,138.099 23.229 M325.139 22.969 C 325.108 23.044,324.794 23.219,324.441 23.358 C 323.920 23.562,323.731 23.767,323.446 24.430 C 323.253 24.881,322.999 25.349,322.881 25.470 C 322.763 25.591,322.667 25.831,322.667 26.002 C 322.667 26.173,322.600 26.355,322.519 26.405 C 322.438 26.455,322.322 26.760,322.261 27.081 C 322.201 27.403,322.093 27.667,322.022 27.667 C 321.950 27.667,321.713 28.248,321.493 28.958 C 321.274 29.669,321.043 30.287,320.981 30.333 C 320.918 30.379,320.695 31.054,320.484 31.833 C 320.274 32.612,320.050 33.287,319.987 33.333 C 319.924 33.379,319.702 34.129,319.493 35.000 C 319.284 35.871,319.065 36.621,319.005 36.667 C 318.945 36.712,318.728 37.537,318.522 38.500 C 318.316 39.462,318.079 40.376,317.996 40.530 C 317.913 40.684,317.678 41.771,317.473 42.947 C 317.269 44.122,317.050 45.121,316.987 45.167 C 316.858 45.260,316.167 49.853,316.167 50.613 C 316.167 50.881,316.097 51.171,316.012 51.258 C 315.274 52.012,315.193 64.427,315.910 66.917 C 316.042 67.375,316.315 68.331,316.516 69.042 C 316.717 69.752,316.937 70.333,317.004 70.333 C 317.071 70.333,317.214 70.544,317.320 70.802 C 318.565 73.806,323.603 74.425,326.477 71.926 C 327.686 70.874,328.952 69.472,329.500 68.577 C 329.722 68.214,329.999 67.820,330.114 67.701 C 330.230 67.582,330.477 67.170,330.663 66.784 C 330.850 66.399,331.301 65.521,331.666 64.833 C 332.031 64.146,332.456 63.190,332.612 62.708 C 332.767 62.227,332.948 61.833,333.014 61.833 C 333.080 61.833,333.299 61.290,333.501 60.625 C 333.703 59.960,333.919 59.379,333.981 59.333 C 334.043 59.288,334.275 58.650,334.495 57.917 C 334.716 57.183,334.950 56.508,335.015 56.417 C 335.081 56.325,335.243 55.875,335.376 55.417 L 335.618 54.585 335.741 56.319 C 335.808 57.273,335.925 58.173,336.000 58.318 C 336.075 58.464,336.291 59.586,336.481 60.812 C 336.670 62.037,336.893 63.125,336.976 63.228 C 337.059 63.332,337.254 63.867,337.411 64.417 C 337.725 65.523,338.810 67.833,339.014 67.833 C 339.086 67.833,339.189 67.974,339.244 68.147 C 339.389 68.604,341.254 70.437,341.836 70.695 C 342.109 70.816,342.333 70.962,342.333 71.021 C 342.333 71.603,347.390 71.634,347.816 71.054 C 347.871 70.978,348.171 70.775,348.481 70.602 C 349.205 70.199,350.199 69.205,350.602 68.481 C 350.775 68.171,350.964 67.879,351.022 67.833 C 351.272 67.636,352.338 65.430,352.610 64.547 C 352.774 64.017,352.956 63.546,353.015 63.500 C 353.116 63.421,353.508 61.925,353.757 60.667 C 353.820 60.346,353.929 60.008,353.999 59.917 C 354.266 59.565,354.850 54.792,355.182 50.250 C 355.364 47.757,355.244 40.551,355.016 40.259 C 354.940 40.162,354.829 39.412,354.769 38.592 C 354.638 36.809,354.161 33.617,354.008 33.500 C 353.948 33.454,353.732 32.782,353.527 32.006 C 353.322 31.230,353.099 30.555,353.032 30.506 C 352.964 30.457,352.778 30.210,352.617 29.958 C 352.184 29.278,350.914 29.293,350.152 29.989 C 349.604 30.489,349.507 31.815,349.977 32.393 C 350.619 33.183,351.107 45.772,350.757 52.539 C 350.609 55.425,350.151 60.068,350.006 60.167 C 349.939 60.212,349.834 60.587,349.773 61.000 C 349.605 62.137,349.111 64.239,348.990 64.333 C 348.931 64.379,348.750 64.821,348.587 65.314 C 347.875 67.477,346.409 68.718,345.083 68.280 C 344.572 68.112,343.727 66.376,343.398 64.817 C 343.235 64.047,343.050 63.379,342.987 63.333 C 342.521 62.995,342.004 53.635,341.862 42.968 C 341.752 34.649,341.745 34.514,341.397 34.190 C 340.570 33.420,338.397 33.093,337.261 33.568 C 336.660 33.819,336.629 33.881,336.325 35.417 C 336.217 35.967,336.078 36.454,336.017 36.500 C 335.893 36.594,335.167 39.762,335.167 40.210 C 335.167 40.370,335.100 40.500,335.019 40.500 C 334.938 40.500,334.834 40.706,334.789 40.958 C 334.552 42.278,334.113 44.094,334.012 44.167 C 333.949 44.212,333.725 45.038,333.514 46.000 C 333.303 46.962,333.071 47.825,332.999 47.917 C 332.926 48.008,332.695 48.796,332.485 49.667 C 332.275 50.538,332.057 51.288,332.000 51.333 C 331.943 51.379,331.723 52.092,331.510 52.917 C 331.297 53.742,331.071 54.492,331.008 54.583 C 330.883 54.764,330.612 55.650,330.320 56.833 C 330.218 57.246,330.074 57.658,330.001 57.750 C 329.928 57.842,329.702 58.479,329.500 59.167 C 329.298 59.854,329.075 60.492,329.005 60.583 C 328.935 60.675,328.706 61.275,328.496 61.917 C 328.287 62.558,328.024 63.233,327.912 63.417 C 327.801 63.600,327.572 64.144,327.405 64.625 C 327.238 65.106,327.051 65.500,326.990 65.500 C 326.929 65.500,326.746 65.856,326.584 66.292 C 326.421 66.727,326.163 67.233,326.008 67.417 C 325.854 67.600,325.591 67.970,325.423 68.239 C 324.962 68.980,324.141 69.833,323.890 69.833 C 323.767 69.833,323.667 69.908,323.667 70.000 C 323.667 70.589,322.686 70.024,322.075 69.083 C 321.688 68.488,321.585 61.557,321.952 60.805 C 322.056 60.592,322.300 59.114,322.492 57.522 C 322.685 55.929,322.905 54.504,322.981 54.355 C 323.057 54.206,323.294 52.921,323.507 51.500 C 323.720 50.079,323.943 48.879,324.002 48.833 C 324.061 48.788,324.281 47.705,324.490 46.427 C 324.699 45.149,324.933 43.986,325.009 43.843 C 325.086 43.700,325.306 42.608,325.499 41.417 C 325.692 40.225,325.921 39.100,326.006 38.917 C 326.092 38.733,326.316 37.683,326.504 36.583 C 326.692 35.483,326.913 34.433,326.995 34.250 C 327.077 34.067,327.305 32.904,327.501 31.667 C 327.697 30.429,327.915 29.304,327.986 29.167 C 328.285 28.584,328.735 24.532,328.546 24.118 C 328.160 23.270,325.397 22.338,325.139 22.969 M232.348 23.564 C 231.650 23.817,231.167 24.645,231.167 25.589 C 231.167 25.962,231.098 26.338,231.015 26.425 C 230.931 26.512,230.778 27.858,230.674 29.417 C 230.571 30.975,230.414 33.314,230.326 34.615 C 230.239 35.915,230.167 37.510,230.167 38.158 C 230.167 38.807,230.097 39.468,230.011 39.627 C 229.926 39.786,229.732 42.842,229.580 46.417 C 229.323 52.494,229.217 54.583,228.847 60.917 C 228.207 71.886,228.359 74.093,229.781 74.488 C 232.181 75.155,234.333 74.465,234.333 73.030 L 234.334 72.250 237.141 72.250 C 238.953 72.250,240.032 72.184,240.183 72.064 C 240.311 71.962,240.754 71.829,241.167 71.768 C 241.988 71.647,243.534 71.179,243.667 71.012 C 243.713 70.955,244.088 70.763,244.500 70.587 C 244.912 70.411,245.384 70.132,245.548 69.967 C 245.712 69.802,245.927 69.667,246.025 69.667 C 246.262 69.667,248.211 68.201,248.389 67.889 C 248.466 67.755,248.663 67.594,248.827 67.531 C 249.127 67.416,251.107 65.175,251.633 64.354 C 251.788 64.114,252.046 63.771,252.207 63.594 C 252.368 63.416,252.500 63.211,252.500 63.138 C 252.500 63.066,252.762 62.596,253.083 62.095 C 253.404 61.593,253.667 61.072,253.667 60.937 C 253.667 60.801,253.769 60.588,253.893 60.464 C 254.018 60.339,254.290 59.753,254.498 59.160 C 254.705 58.568,254.930 58.008,254.996 57.917 C 255.183 57.656,255.641 56.138,255.764 55.365 C 255.826 54.981,255.926 54.667,255.988 54.667 C 256.132 54.667,256.434 53.162,256.674 51.250 C 256.778 50.425,256.950 49.570,257.056 49.350 C 257.316 48.813,257.320 40.473,257.060 40.145 C 256.960 40.020,256.829 39.471,256.767 38.926 C 256.623 37.639,256.168 35.441,256.024 35.334 C 255.962 35.288,255.736 34.688,255.520 34.000 C 255.305 33.313,255.039 32.637,254.929 32.500 C 254.819 32.362,254.591 31.931,254.423 31.542 C 254.254 31.152,254.062 30.833,253.995 30.833 C 253.928 30.833,253.783 30.615,253.673 30.348 C 253.562 30.081,252.859 29.246,252.111 28.492 C 250.413 26.782,250.393 26.765,249.583 26.391 C 249.217 26.222,248.870 26.019,248.812 25.940 C 248.054 24.901,240.629 25.013,239.563 26.080 C 239.423 26.219,239.217 26.333,239.104 26.333 C 238.819 26.333,236.798 27.775,236.588 28.128 C 236.461 28.342,236.395 27.946,236.333 26.583 C 236.207 23.814,234.738 22.700,232.348 23.564 M7.781 23.669 C 7.089 23.877,6.167 24.637,6.167 24.999 C 6.167 25.172,6.101 25.354,6.020 25.404 C 5.940 25.454,5.706 26.190,5.502 27.039 C 5.298 27.888,5.073 28.658,5.002 28.750 C 4.931 28.842,4.711 29.704,4.513 30.667 C 4.314 31.629,4.082 32.543,3.997 32.698 C 3.913 32.853,3.675 33.978,3.469 35.198 C 3.263 36.418,3.045 37.454,2.984 37.500 C 2.923 37.546,2.707 38.821,2.505 40.333 C 2.302 41.846,2.070 43.211,1.989 43.367 C 1.174 44.926,1.174 60.709,1.988 61.744 C 2.062 61.839,2.176 62.217,2.240 62.583 C 2.733 65.401,5.348 69.553,7.321 70.650 C 8.667 71.399,9.272 71.671,9.813 71.770 C 10.145 71.831,10.470 71.964,10.536 72.066 C 10.715 72.343,16.699 72.320,16.792 72.042 C 16.830 71.927,16.986 71.830,17.139 71.826 C 18.794 71.782,22.547 68.661,23.600 66.451 C 23.762 66.111,23.947 65.833,24.012 65.833 C 24.076 65.833,24.301 65.402,24.512 64.875 C 24.723 64.348,24.954 63.876,25.026 63.827 C 25.097 63.777,25.316 63.215,25.512 62.577 C 25.708 61.939,25.925 61.342,25.995 61.250 C 26.065 61.158,26.290 60.296,26.495 59.333 C 26.700 58.371,26.930 57.433,27.007 57.250 C 27.287 56.585,27.888 51.919,28.188 48.083 C 28.397 45.422,28.250 34.350,28.003 34.103 C 27.910 34.010,27.833 33.537,27.833 33.053 C 27.833 32.043,27.366 26.717,27.243 26.318 C 26.623 24.314,23.573 25.318,23.237 27.637 C 23.175 28.066,23.062 28.496,22.986 28.592 C 22.797 28.831,22.545 34.050,22.330 42.167 C 22.231 45.879,22.085 49.104,22.005 49.333 C 21.925 49.563,21.816 50.688,21.762 51.833 C 21.645 54.336,21.194 58.619,21.000 59.083 C 20.923 59.267,20.733 60.129,20.577 61.000 C 20.421 61.871,20.195 62.792,20.074 63.046 C 19.953 63.301,19.734 63.922,19.587 64.427 C 18.413 68.466,15.120 70.766,12.229 69.565 C 11.656 69.328,10.692 68.441,10.673 68.137 C 10.670 68.074,10.446 67.546,10.176 66.963 C 9.906 66.379,9.561 65.230,9.411 64.409 C 9.260 63.588,9.056 62.729,8.956 62.500 C 8.705 61.920,8.604 52.338,8.819 49.417 C 8.913 48.133,9.064 46.296,9.153 45.333 C 9.242 44.371,9.439 42.121,9.590 40.333 C 9.742 38.546,9.927 36.933,10.002 36.750 C 10.077 36.567,10.226 35.517,10.333 34.417 C 10.564 32.031,10.929 28.967,11.147 27.583 C 11.459 25.607,11.387 24.671,10.886 24.207 C 10.168 23.541,8.924 23.326,7.781 23.669 M46.250 23.799 C 45.402 24.099,44.833 24.585,44.753 25.077 C 44.588 26.094,44.167 30.167,44.167 30.744 C 44.167 31.071,44.098 31.468,44.014 31.627 C 43.852 31.933,43.618 34.738,43.327 39.833 C 43.231 41.529,43.081 43.179,42.994 43.500 C 42.741 44.440,42.071 59.141,41.899 67.543 L 41.821 71.337 42.238 71.754 C 42.845 72.361,43.426 72.533,44.859 72.531 C 47.044 72.528,47.598 72.046,47.742 70.025 C 47.799 69.232,47.917 68.321,48.004 68.000 C 48.142 67.491,48.482 63.127,48.786 57.953 C 48.839 57.056,48.946 56.283,49.025 56.235 C 49.103 56.187,49.167 55.843,49.167 55.471 C 49.167 54.844,49.194 54.804,49.542 54.919 C 50.232 55.147,51.547 55.204,52.152 55.031 C 52.481 54.937,53.427 54.751,54.255 54.617 C 55.083 54.484,56.095 54.225,56.505 54.042 C 56.915 53.859,57.532 53.618,57.877 53.508 C 58.221 53.397,58.596 53.215,58.710 53.103 C 58.824 52.991,59.273 52.728,59.708 52.518 C 60.144 52.308,60.500 52.067,60.500 51.981 C 60.500 51.895,60.673 51.759,60.884 51.679 C 61.347 51.503,63.833 49.184,63.833 48.928 C 63.833 48.828,63.983 48.653,64.167 48.539 C 64.350 48.424,64.501 48.237,64.503 48.124 C 64.505 48.010,64.730 47.586,65.005 47.181 C 65.279 46.776,65.589 46.158,65.695 45.806 C 65.800 45.454,65.941 45.167,66.008 45.167 C 66.075 45.167,66.296 44.548,66.499 43.792 C 66.702 43.035,66.926 42.342,66.996 42.250 C 67.785 41.225,67.796 32.549,67.010 31.594 C 66.930 31.496,66.708 30.972,66.517 30.428 C 66.326 29.884,66.113 29.396,66.043 29.344 C 65.974 29.292,65.804 29.049,65.667 28.804 C 64.755 27.179,63.229 25.869,61.703 25.403 C 61.179 25.243,60.645 25.031,60.516 24.931 C 60.205 24.691,55.532 24.685,55.369 24.925 C 55.304 25.021,54.913 25.197,54.500 25.316 C 54.087 25.434,53.337 25.801,52.833 26.130 C 51.979 26.687,51.617 26.971,50.816 27.708 C 50.507 27.993,50.500 27.962,50.500 26.337 C 50.500 24.705,50.492 24.669,50.042 24.383 C 49.790 24.222,49.533 24.020,49.472 23.933 C 49.338 23.742,46.719 23.633,46.250 23.799 M87.625 23.776 C 87.373 23.820,87.167 23.925,87.167 24.011 C 87.167 24.097,87.029 24.167,86.860 24.167 C 85.299 24.167,82.054 27.237,81.312 29.417 C 81.187 29.783,81.039 30.121,80.983 30.167 C 80.205 30.805,80.229 39.543,81.014 40.994 C 81.090 41.135,81.315 42.037,81.514 43.000 C 81.714 43.962,81.928 44.788,81.989 44.833 C 82.051 44.879,82.274 45.554,82.484 46.333 C 82.695 47.112,82.920 47.788,82.985 47.833 C 83.050 47.879,83.268 48.446,83.470 49.093 C 83.671 49.739,83.986 50.561,84.168 50.919 C 84.351 51.278,84.500 51.686,84.501 51.827 C 84.501 51.968,84.636 52.308,84.802 52.583 C 84.967 52.858,85.279 53.571,85.495 54.167 C 85.711 54.762,85.950 55.332,86.026 55.432 C 86.102 55.532,86.315 56.088,86.500 56.667 C 86.685 57.246,86.903 57.801,86.984 57.901 C 87.064 58.001,87.291 58.683,87.487 59.417 C 87.684 60.150,87.916 60.880,88.005 61.039 C 88.880 62.610,88.750 66.573,87.792 67.539 C 87.631 67.701,87.500 67.906,87.500 67.996 C 87.500 68.180,86.150 68.833,85.769 68.833 C 85.632 68.833,85.473 68.908,85.417 69.000 C 85.292 69.201,84.297 69.222,84.075 69.028 C 83.988 68.952,83.617 68.804,83.250 68.700 C 82.639 68.527,81.870 67.894,81.001 66.851 C 80.521 66.274,80.312 65.451,80.212 63.750 C 80.164 62.925,80.078 62.212,80.021 62.167 C 79.963 62.121,79.834 61.933,79.733 61.750 C 79.247 60.870,77.623 61.076,76.991 62.098 C 76.573 62.774,76.556 66.491,76.970 66.629 C 77.078 66.665,77.167 66.794,77.167 66.917 C 77.167 68.281,79.791 71.205,81.457 71.697 C 81.848 71.812,82.167 71.959,82.167 72.023 C 82.167 72.632,87.001 72.627,88.417 72.017 C 88.600 71.938,89.087 71.737,89.500 71.570 C 89.912 71.403,90.362 71.169,90.500 71.049 C 90.638 70.930,91.087 70.561,91.500 70.229 C 91.912 69.897,92.362 69.461,92.500 69.260 C 92.638 69.058,92.901 68.735,93.085 68.541 C 93.719 67.875,94.519 66.064,94.696 64.894 C 94.791 64.265,94.936 63.620,95.018 63.461 C 95.208 63.092,95.214 60.382,95.024 60.265 C 94.946 60.217,94.840 59.631,94.789 58.964 C 94.684 57.596,94.195 55.003,93.994 54.750 C 93.922 54.658,93.705 53.953,93.514 53.183 C 93.322 52.413,93.092 51.695,93.003 51.587 C 92.913 51.479,92.681 50.872,92.486 50.237 C 92.291 49.603,92.071 49.008,91.998 48.917 C 91.924 48.825,91.700 48.263,91.499 47.667 C 91.299 47.071,91.086 46.546,91.026 46.500 C 90.966 46.454,90.736 45.892,90.515 45.250 C 90.293 44.608,90.021 43.933,89.908 43.750 C 89.796 43.567,89.572 43.004,89.411 42.500 C 89.250 41.996,89.065 41.546,89.000 41.500 C 88.936 41.454,88.710 40.892,88.499 40.250 C 88.288 39.608,88.024 38.933,87.911 38.750 C 87.799 38.567,87.575 37.910,87.412 37.292 C 87.250 36.673,87.064 36.167,86.998 36.167 C 86.855 36.167,86.543 34.227,86.408 32.500 C 86.300 31.121,86.651 28.705,87.027 28.243 C 90.262 24.254,93.753 27.981,92.496 34.083 C 91.974 36.615,92.158 37.152,93.549 37.161 C 94.811 37.170,95.833 35.593,95.833 33.638 C 95.833 33.390,95.908 33.140,96.000 33.083 C 96.202 32.958,96.226 29.633,96.026 29.408 C 95.949 29.321,95.797 28.831,95.687 28.318 C 95.324 26.617,93.770 24.689,92.451 24.304 C 92.066 24.192,91.701 24.028,91.640 23.940 C 91.524 23.770,88.396 23.642,87.625 23.776 M188.333 23.978 C 188.196 24.057,187.475 24.171,186.732 24.230 C 185.411 24.335,183.666 24.747,183.500 24.994 C 183.454 25.062,183.131 25.252,182.781 25.416 C 182.176 25.700,181.333 26.686,181.333 27.110 C 181.333 27.220,181.228 27.415,181.098 27.545 C 180.847 27.796,180.167 29.835,180.167 30.337 C 180.167 30.503,180.095 30.664,180.008 30.694 C 179.921 30.725,179.693 31.650,179.502 32.750 C 179.311 33.850,179.085 34.900,179.000 35.083 C 178.915 35.267,178.689 36.729,178.499 38.333 C 178.309 39.938,178.084 41.475,177.999 41.750 C 177.809 42.367,177.382 47.273,177.244 50.417 C 177.188 51.700,177.070 52.900,176.983 53.083 C 176.357 54.391,177.313 71.167,178.013 71.167 C 178.083 71.167,178.189 71.391,178.250 71.665 C 178.310 71.939,178.559 72.313,178.804 72.496 C 179.050 72.680,179.343 72.908,179.457 73.004 C 180.068 73.517,184.390 73.618,186.417 73.166 C 186.783 73.085,188.058 72.817,189.250 72.571 C 190.442 72.325,191.454 72.075,191.500 72.016 C 191.546 71.956,192.296 71.734,193.167 71.521 C 194.037 71.308,194.787 71.084,194.833 71.023 C 194.879 70.961,195.516 70.738,196.248 70.526 C 196.980 70.314,197.618 70.080,197.665 70.006 C 197.712 69.931,198.067 69.776,198.454 69.660 C 199.107 69.465,199.426 69.240,199.958 68.598 C 200.206 68.300,200.238 67.333,200.000 67.333 C 199.908 67.333,199.833 67.248,199.833 67.143 C 199.833 66.447,197.688 66.327,197.167 66.995 C 197.121 67.053,196.446 67.274,195.667 67.484 C 194.887 67.695,194.213 67.925,194.167 67.995 C 194.121 68.065,193.371 68.289,192.500 68.493 C 191.629 68.696,190.842 68.923,190.750 68.997 C 190.477 69.218,187.467 69.674,186.201 69.686 C 184.428 69.702,184.378 69.670,184.243 68.407 C 184.057 66.671,184.700 53.018,185.066 50.917 C 185.114 50.642,185.280 48.682,185.434 46.562 L 185.715 42.706 187.566 42.598 C 192.360 42.319,194.763 42.117,194.908 41.981 C 194.995 41.900,195.370 41.833,195.742 41.832 C 198.427 41.827,199.500 41.399,199.500 40.330 C 199.500 39.690,199.235 39.167,198.911 39.167 C 198.777 39.167,198.667 39.092,198.667 39.000 C 198.667 38.789,196.125 38.777,195.908 38.986 C 195.738 39.151,186.379 39.601,186.230 39.452 C 186.080 39.302,186.785 32.264,187.001 31.750 C 187.078 31.567,187.187 31.004,187.243 30.500 C 187.481 28.353,187.690 27.650,188.149 27.461 C 188.714 27.228,193.204 27.246,196.402 27.493 C 198.985 27.692,199.833 27.586,199.833 27.063 C 199.833 26.937,199.908 26.833,200.000 26.833 C 200.359 26.833,200.171 25.686,199.741 25.256 C 198.995 24.510,189.294 23.423,188.333 23.978 M285.001 24.780 C 284.681 24.824,284.381 24.911,284.335 24.972 C 284.288 25.033,283.725 25.216,283.083 25.379 C 282.442 25.541,281.729 25.805,281.500 25.966 C 281.271 26.127,280.765 26.406,280.377 26.587 C 279.988 26.768,279.670 26.971,279.669 27.037 C 279.668 27.104,279.441 27.275,279.165 27.418 C 278.889 27.560,278.137 28.218,277.493 28.880 C 275.833 30.586,275.667 30.771,275.667 30.904 C 275.667 30.969,275.479 31.268,275.250 31.569 C 274.775 32.191,274.125 33.308,273.736 34.167 C 273.591 34.487,273.264 35.200,273.010 35.750 C 272.755 36.300,272.454 37.144,272.340 37.625 C 272.226 38.106,272.082 38.500,272.019 38.500 C 271.957 38.500,271.731 39.344,271.518 40.375 C 271.305 41.406,271.070 42.400,270.997 42.583 C 270.030 44.992,270.037 56.937,271.007 59.083 C 271.090 59.267,271.275 59.939,271.418 60.578 C 271.562 61.217,271.793 61.967,271.934 62.245 C 272.074 62.523,272.332 63.158,272.509 63.656 C 272.685 64.154,272.887 64.604,272.957 64.656 C 273.026 64.708,273.254 65.087,273.462 65.500 C 273.948 66.461,274.810 67.667,275.011 67.667 C 275.097 67.667,275.167 67.766,275.167 67.887 C 275.167 68.082,276.090 68.988,277.333 70.014 C 278.489 70.967,280.206 71.829,280.958 71.832 C 281.073 71.833,281.167 71.895,281.167 71.971 C 281.167 72.609,289.005 72.650,289.500 72.015 C 289.546 71.956,290.012 71.775,290.537 71.614 C 291.061 71.452,291.586 71.229,291.703 71.118 C 291.821 71.007,292.254 70.734,292.667 70.511 C 293.079 70.288,293.515 69.969,293.634 69.803 C 293.754 69.636,293.931 69.500,294.027 69.500 C 294.254 69.500,296.500 67.254,296.500 67.027 C 296.500 66.931,296.638 66.754,296.806 66.634 C 296.975 66.515,297.294 66.079,297.515 65.667 C 297.736 65.254,297.974 64.891,298.045 64.860 C 298.116 64.829,298.309 64.529,298.475 64.193 C 298.641 63.858,298.924 63.321,299.105 63.000 C 299.285 62.679,299.538 62.079,299.667 61.667 C 299.797 61.254,299.961 60.875,300.033 60.824 C 300.105 60.774,300.321 60.174,300.514 59.491 C 300.706 58.808,300.927 58.128,301.005 57.978 C 301.177 57.644,301.607 55.576,301.763 54.333 C 301.826 53.829,301.936 53.342,302.007 53.250 C 302.594 52.494,302.577 41.526,301.989 40.925 C 301.903 40.838,301.833 40.587,301.833 40.368 C 301.833 39.681,301.153 36.586,300.989 36.528 C 300.904 36.497,300.833 36.352,300.833 36.206 C 300.833 35.866,300.159 33.944,300.001 33.833 C 299.935 33.787,299.795 33.483,299.689 33.158 C 299.488 32.542,298.559 30.965,298.098 30.458 C 297.953 30.298,297.833 30.104,297.833 30.028 C 297.833 29.836,295.339 27.167,295.160 27.167 C 295.080 27.167,294.828 26.979,294.598 26.750 C 294.369 26.521,294.070 26.333,293.933 26.333 C 293.795 26.333,293.623 26.232,293.550 26.107 C 293.405 25.862,291.530 25.167,291.013 25.167 C 290.838 25.167,290.666 25.081,290.631 24.975 C 290.564 24.775,286.142 24.621,285.001 24.780 M373.417 25.468 C 372.092 26.029,371.665 26.682,371.333 28.661 C 371.218 29.346,371.060 30.021,370.982 30.161 C 370.829 30.436,370.167 36.715,370.167 37.890 C 370.167 38.280,370.102 38.671,370.023 38.758 C 369.877 38.918,369.654 41.834,369.324 47.917 C 369.224 49.750,369.078 51.400,369.000 51.583 C 368.857 51.918,368.420 60.954,368.222 67.668 C 368.091 72.101,368.380 72.833,370.261 72.833 C 370.473 72.833,370.693 72.908,370.750 73.000 C 370.884 73.216,371.616 73.216,371.750 73.000 C 371.807 72.908,371.980 72.833,372.135 72.832 C 374.030 72.826,374.110 72.583,374.525 65.602 C 374.716 62.383,374.931 59.600,375.003 59.417 C 375.123 59.110,375.543 52.175,375.780 46.583 C 375.834 45.300,375.938 44.173,376.011 44.080 C 376.084 43.986,376.239 41.459,376.354 38.464 C 376.589 32.399,376.618 32.316,377.510 35.177 C 377.723 35.859,377.940 36.454,377.992 36.500 C 378.045 36.546,378.265 37.146,378.480 37.833 C 378.696 38.521,378.937 39.164,379.016 39.263 C 379.095 39.362,379.320 39.962,379.515 40.596 C 379.711 41.231,379.921 41.787,379.982 41.833 C 380.044 41.879,380.277 42.517,380.500 43.250 C 380.723 43.983,380.956 44.621,381.018 44.667 C 381.079 44.712,381.296 45.313,381.500 46.000 C 381.704 46.688,381.926 47.288,381.993 47.333 C 382.060 47.379,382.284 47.979,382.490 48.667 C 382.697 49.354,382.926 49.992,382.999 50.083 C 383.072 50.175,383.291 50.769,383.486 51.404 C 383.681 52.038,383.904 52.638,383.983 52.737 C 384.061 52.836,384.299 53.479,384.511 54.167 C 384.723 54.854,384.943 55.454,385.000 55.500 C 385.057 55.546,385.240 56.033,385.405 56.583 C 385.571 57.133,385.796 57.733,385.906 57.917 C 386.015 58.100,386.279 58.775,386.491 59.417 C 386.704 60.058,386.929 60.621,386.991 60.667 C 387.053 60.712,387.240 61.200,387.405 61.750 C 387.571 62.300,387.796 62.900,387.906 63.083 C 388.015 63.267,388.279 63.942,388.491 64.583 C 388.704 65.225,388.929 65.787,388.991 65.833 C 389.053 65.879,389.278 66.479,389.491 67.167 C 389.704 67.854,389.932 68.454,389.998 68.500 C 390.064 68.546,390.285 69.070,390.489 69.665 C 390.693 70.260,390.911 70.785,390.972 70.832 C 391.033 70.879,391.223 71.193,391.395 71.530 C 391.954 72.630,395.247 73.074,396.667 72.241 L 397.250 71.899 397.285 70.408 C 397.304 69.588,397.407 64.829,397.514 59.833 C 397.620 54.837,397.774 48.500,397.855 45.750 C 398.320 29.881,398.376 26.642,398.189 26.232 C 397.697 25.152,394.432 24.777,393.429 25.685 C 392.996 26.078,392.873 28.270,392.437 43.417 C 392.287 48.642,392.089 53.236,391.998 53.627 C 391.908 54.018,391.825 55.256,391.815 56.377 C 391.791 59.103,391.628 60.666,391.454 59.830 C 391.387 59.508,391.193 58.983,391.022 58.664 C 390.851 58.344,390.655 57.821,390.586 57.500 C 390.517 57.179,390.325 56.632,390.159 56.284 C 389.993 55.937,389.690 55.112,389.487 54.451 C 389.284 53.791,389.068 53.212,389.007 53.167 C 388.946 53.121,388.722 52.521,388.509 51.833 C 388.296 51.146,388.074 50.546,388.016 50.500 C 387.959 50.454,387.735 49.854,387.520 49.167 C 387.304 48.479,387.060 47.833,386.978 47.730 C 386.895 47.627,386.710 47.139,386.567 46.646 C 386.423 46.153,386.210 45.600,386.095 45.417 C 385.979 45.233,385.712 44.558,385.500 43.917 C 385.288 43.275,385.023 42.600,384.910 42.417 C 384.797 42.233,384.572 41.671,384.411 41.167 C 384.250 40.662,384.065 40.212,384.000 40.167 C 383.936 40.121,383.711 39.558,383.500 38.917 C 383.289 38.275,383.064 37.712,383.000 37.667 C 382.936 37.621,382.716 37.077,382.511 36.458 C 382.307 35.840,382.086 35.333,382.021 35.333 C 381.956 35.333,381.808 34.980,381.693 34.549 C 381.577 34.117,381.311 33.422,381.101 33.004 C 380.891 32.585,380.589 31.851,380.429 31.372 C 380.270 30.892,380.071 30.500,379.987 30.500 C 379.902 30.500,379.833 30.408,379.833 30.295 C 379.833 30.057,379.133 28.291,378.990 28.167 C 378.937 28.121,378.765 27.756,378.607 27.355 C 377.799 25.303,375.650 24.522,373.417 25.468 M59.772 27.342 C 60.477 27.610,61.327 28.585,61.618 29.462 C 61.763 29.895,61.945 30.332,62.023 30.433 C 62.527 31.081,62.511 37.985,62.002 39.083 C 61.918 39.267,61.691 40.163,61.499 41.076 C 61.307 41.989,61.091 42.814,61.017 42.909 C 60.944 43.005,60.709 43.590,60.495 44.208 C 60.280 44.827,60.049 45.333,59.980 45.333 C 59.912 45.333,59.804 45.496,59.741 45.694 C 59.468 46.554,56.501 50.167,56.067 50.167 C 56.028 50.167,55.602 50.424,55.122 50.739 C 54.643 51.053,53.800 51.432,53.250 51.579 C 52.700 51.727,52.120 51.920,51.961 52.007 C 51.445 52.291,49.551 52.206,49.431 51.894 C 49.307 51.570,49.776 46.766,49.991 46.167 C 50.073 45.938,50.305 44.587,50.507 43.167 C 50.710 41.746,50.923 40.546,50.980 40.500 C 51.038 40.454,51.261 39.554,51.476 38.500 C 51.690 37.446,51.925 36.508,51.998 36.417 C 52.070 36.325,52.292 35.652,52.491 34.920 C 52.690 34.189,52.909 33.552,52.977 33.504 C 53.045 33.456,53.237 33.042,53.405 32.583 C 53.572 32.125,53.925 31.393,54.188 30.956 C 54.451 30.519,54.667 30.092,54.667 30.006 C 54.667 29.920,54.767 29.790,54.890 29.717 C 55.014 29.643,55.256 29.358,55.430 29.083 C 56.448 27.469,58.228 26.755,59.772 27.342 M289.222 27.583 C 289.749 27.720,290.341 27.983,290.538 28.166 C 290.735 28.350,290.958 28.500,291.034 28.500 C 291.251 28.500,292.320 29.657,292.594 30.188 C 292.730 30.451,292.898 30.667,292.965 30.667 C 293.033 30.667,293.272 31.135,293.497 31.708 C 293.721 32.281,293.945 32.787,293.995 32.833 C 294.158 32.984,294.475 34.063,294.680 35.167 C 294.791 35.762,294.937 36.325,295.006 36.417 C 295.699 37.345,295.696 52.346,295.002 53.250 C 294.931 53.342,294.821 53.942,294.756 54.583 C 294.595 56.170,294.195 58.510,294.015 58.917 C 293.934 59.100,293.699 59.925,293.493 60.750 C 293.287 61.575,293.069 62.288,293.008 62.333 C 292.948 62.379,292.724 62.904,292.510 63.500 C 292.297 64.096,292.073 64.621,292.014 64.667 C 291.954 64.712,291.721 65.144,291.497 65.625 C 291.272 66.106,291.033 66.500,290.965 66.500 C 290.897 66.500,290.732 66.706,290.597 66.958 C 290.075 67.936,288.709 69.119,287.630 69.529 C 286.035 70.135,282.536 69.757,281.480 68.865 C 280.243 67.819,279.071 66.278,278.541 65.000 C 278.408 64.679,278.160 64.110,277.991 63.736 C 277.822 63.361,277.562 62.311,277.414 61.402 C 277.267 60.493,277.057 59.570,276.948 59.350 C 276.690 58.827,276.705 49.485,276.965 48.947 C 277.062 48.747,277.224 47.646,277.326 46.500 C 277.545 44.042,277.856 41.784,277.991 41.667 C 278.044 41.621,278.266 40.683,278.483 39.583 C 278.701 38.483,278.929 37.546,278.990 37.500 C 279.051 37.454,279.273 36.817,279.483 36.083 C 279.694 35.350,279.919 34.712,279.985 34.667 C 280.051 34.621,280.278 34.115,280.489 33.542 C 280.701 32.969,280.927 32.500,280.992 32.500 C 281.057 32.500,281.285 32.125,281.500 31.667 C 281.715 31.208,281.934 30.833,281.987 30.832 C 282.040 30.832,282.268 30.560,282.494 30.229 C 283.075 29.375,283.665 28.779,284.292 28.412 C 284.590 28.238,284.833 28.048,284.833 27.991 C 284.833 27.902,285.103 27.803,286.417 27.410 C 286.883 27.270,288.374 27.362,289.222 27.583 M151.482 27.945 C 151.538 28.021,151.921 28.261,152.333 28.478 C 152.992 28.825,153.833 29.768,153.833 30.160 C 153.833 30.236,153.935 30.337,154.059 30.384 C 154.184 30.432,154.416 30.871,154.576 31.361 C 154.736 31.850,154.934 32.291,155.015 32.342 C 155.195 32.454,155.827 35.374,155.831 36.111 C 155.832 36.401,155.918 36.667,156.022 36.702 C 156.283 36.789,156.408 43.943,156.184 46.000 C 155.802 49.520,155.208 53.462,154.992 53.917 C 154.905 54.100,154.683 54.993,154.498 55.902 C 154.314 56.810,154.098 57.635,154.018 57.735 C 153.938 57.835,153.696 58.479,153.480 59.167 C 153.265 59.854,153.046 60.454,152.994 60.500 C 152.942 60.546,152.725 60.996,152.512 61.500 C 152.299 62.004,152.069 62.454,152.001 62.500 C 151.934 62.546,151.715 62.905,151.515 63.299 C 151.316 63.692,151.025 64.149,150.868 64.315 C 150.711 64.481,150.283 65.008,149.917 65.488 C 149.550 65.967,149.044 66.468,148.792 66.601 C 148.540 66.733,148.333 66.907,148.333 66.987 C 148.333 67.068,148.015 67.299,147.625 67.501 C 147.235 67.704,146.871 67.942,146.816 68.031 C 146.460 68.599,141.110 69.214,140.687 68.736 C 140.560 68.592,140.874 62.590,141.074 61.333 C 141.155 60.829,141.274 58.868,141.767 49.917 C 141.817 49.000,141.922 48.100,142.000 47.917 C 142.077 47.733,142.185 46.721,142.239 45.667 C 142.375 43.040,142.837 38.620,142.997 38.417 C 143.069 38.325,143.218 37.688,143.328 37.000 C 143.545 35.645,143.824 34.514,144.007 34.250 C 144.070 34.158,144.293 33.558,144.503 32.917 C 144.712 32.275,144.935 31.712,145.000 31.667 C 145.064 31.621,145.214 31.396,145.332 31.167 C 145.719 30.419,146.909 28.889,147.250 28.702 C 147.433 28.602,147.790 28.433,148.042 28.327 C 148.294 28.221,148.500 28.071,148.500 27.995 C 148.500 27.681,151.254 27.635,151.482 27.945 M245.460 28.420 C 246.028 28.589,246.525 28.893,246.948 29.330 C 247.999 30.417,248.161 30.641,248.489 31.462 C 248.661 31.896,248.916 32.465,249.054 32.727 C 249.192 32.990,249.439 33.927,249.603 34.811 C 249.766 35.694,249.974 36.467,250.063 36.528 C 250.293 36.685,250.397 45.399,250.191 47.250 C 249.929 49.608,249.193 54.216,249.019 54.583 C 248.932 54.767,248.697 55.667,248.495 56.583 C 248.294 57.500,248.070 58.325,247.998 58.417 C 247.926 58.508,247.755 58.958,247.618 59.417 C 247.481 59.875,247.182 60.625,246.954 61.083 C 246.726 61.542,246.440 62.198,246.319 62.542 C 246.198 62.885,246.036 63.167,245.958 63.167 C 245.881 63.167,245.722 63.394,245.605 63.672 C 245.225 64.576,243.132 66.950,242.101 67.645 C 241.159 68.282,240.125 68.812,239.806 68.823 C 239.653 68.829,239.503 68.904,239.472 68.991 C 239.386 69.235,236.696 69.517,235.611 69.396 L 234.638 69.287 234.756 66.352 C 234.821 64.738,234.930 63.342,234.998 63.250 C 235.066 63.158,235.166 62.146,235.219 61.000 C 235.486 55.268,235.851 49.696,235.988 49.250 C 236.073 48.975,236.190 47.850,236.248 46.750 C 236.397 43.917,236.818 39.644,236.988 39.250 C 237.067 39.067,237.296 38.017,237.497 36.917 C 237.699 35.817,237.925 34.842,238.000 34.750 C 238.075 34.658,238.300 34.096,238.501 33.500 C 238.701 32.904,238.914 32.379,238.974 32.333 C 239.034 32.288,239.249 31.910,239.452 31.495 C 240.681 28.975,243.122 27.726,245.460 28.420 M221.917 79.686 C 219.533 79.743,214.546 79.875,210.833 79.979 C 207.121 80.084,190.246 80.204,173.333 80.246 C 156.421 80.288,141.908 80.358,141.083 80.401 C 140.258 80.445,136.771 80.562,133.333 80.662 C 129.896 80.761,126.896 80.875,126.667 80.914 C 126.230 80.989,121.945 81.075,105.500 81.337 C 91.109 81.567,51.899 81.547,48.580 81.308 C 43.796 80.964,31.426 81.022,30.358 81.394 C 28.108 82.178,27.371 83.904,28.712 85.246 C 29.036 85.569,29.416 85.833,29.557 85.833 C 29.698 85.833,29.855 85.900,29.905 85.981 C 30.235 86.515,32.095 86.658,39.667 86.732 C 43.837 86.773,48.019 86.893,48.959 86.998 C 52.983 87.452,111.662 87.033,131.500 86.409 C 146.944 85.923,151.925 85.863,177.833 85.848 C 202.194 85.833,207.654 85.787,212.167 85.554 C 213.221 85.499,248.771 85.408,291.167 85.352 L 368.250 85.250 369.317 84.884 C 372.647 83.744,372.642 81.209,369.307 79.959 C 368.405 79.621,235.067 79.374,221.917 79.686 " stroke="none" fill="#fcfcfc" fill-rule="evenodd"></path><path id="path1" d="M209.043 39.428 C 208.654 39.824,208.231 40.209,208.104 40.283 C 207.977 40.356,207.396 40.843,206.812 41.363 C 206.228 41.884,205.506 42.509,205.208 42.753 C 204.518 43.318,204.522 43.350,205.406 44.294 C 205.813 44.728,206.507 45.487,206.948 45.980 C 207.389 46.473,207.994 47.122,208.292 47.422 C 208.590 47.721,208.831 48.030,208.828 48.108 C 208.821 48.301,208.049 49.166,207.883 49.168 C 207.810 49.168,207.398 49.487,206.969 49.876 C 206.136 50.630,205.167 51.471,204.522 51.999 C 203.812 52.582,203.940 52.772,207.762 56.806 C 208.907 58.014,209.011 58.026,210.083 57.078 C 210.450 56.753,211.031 56.247,211.374 55.952 C 212.011 55.405,212.788 54.721,213.558 54.030 L 213.989 53.642 214.703 54.396 C 215.685 55.433,217.372 57.305,217.914 57.958 C 218.470 58.630,218.743 58.638,219.302 58.000 C 219.543 57.725,219.813 57.500,219.900 57.500 C 219.988 57.500,220.300 57.256,220.593 56.958 C 220.886 56.660,221.379 56.211,221.688 55.959 C 224.135 53.965,224.208 53.781,223.044 52.547 C 222.503 51.972,221.524 50.884,220.029 49.196 C 219.750 48.880,219.703 48.740,219.863 48.694 C 219.984 48.658,220.317 48.394,220.602 48.106 C 220.888 47.819,221.483 47.283,221.924 46.917 C 222.366 46.550,222.914 46.079,223.143 45.871 C 223.371 45.662,223.769 45.324,224.028 45.121 C 224.767 44.537,224.806 44.612,222.500 42.177 C 221.996 41.644,221.210 40.787,220.754 40.271 C 219.884 39.288,219.631 39.185,219.083 39.590 C 218.466 40.046,217.088 41.246,216.553 41.792 C 216.261 42.090,215.974 42.333,215.915 42.333 C 215.856 42.333,215.583 42.558,215.308 42.833 C 214.681 43.460,214.684 43.460,214.082 42.717 C 213.808 42.378,212.942 41.458,212.158 40.672 C 211.374 39.887,210.682 39.114,210.621 38.956 C 210.435 38.471,209.792 38.663,209.043 39.428 " stroke="none" fill="#dcb46b" fill-rule="evenodd"></path></g></svg>