<svg id="svg" xmlns="http://www.w3.org/2000/svg" xmlns:xlink="http://www.w3.org/1999/xlink" width="400" height="400" viewBox="0, 0, 400,400" version="1.1"><g id="svgg"><path id="path0" d="M250.153 10.800 C 249.570 11.680,248.938 12.400,248.747 12.400 C 248.556 12.400,248.441 12.535,248.492 12.700 C 248.656 13.233,246.546 16.412,246.235 16.101 C 246.069 15.936,245.970 15.980,246.014 16.200 C 246.194 17.093,245.974 17.631,245.538 17.362 C 245.253 17.186,245.185 17.252,245.360 17.535 C 245.516 17.787,245.203 18.434,244.664 18.972 C 244.125 19.511,243.782 20.048,243.900 20.166 C 244.018 20.284,243.820 20.494,243.460 20.632 C 243.099 20.771,242.903 21.043,243.024 21.239 C 243.144 21.434,242.787 22.049,242.231 22.606 C 241.674 23.163,241.214 23.704,241.209 23.809 C 241.204 23.914,241.200 24.191,241.200 24.424 C 241.200 24.657,240.992 24.719,240.738 24.562 C 240.484 24.405,240.384 24.450,240.515 24.663 C 240.840 25.188,239.426 27.285,239.006 26.903 C 238.822 26.736,238.780 26.791,238.913 27.025 C 239.232 27.586,237.837 29.694,237.406 29.303 C 237.222 29.136,237.180 29.191,237.313 29.425 C 237.575 29.885,236.271 32.138,235.937 31.803 C 235.825 31.691,235.733 31.828,235.733 32.108 C 235.733 32.695,225.383 48.381,224.561 49.040 C 224.259 49.281,224.101 49.568,224.210 49.677 C 224.319 49.786,223.975 50.342,223.446 50.913 C 222.917 51.484,222.581 52.047,222.699 52.166 C 222.818 52.284,222.620 52.494,222.260 52.632 C 221.899 52.771,221.705 53.046,221.828 53.245 C 221.950 53.443,221.770 53.713,221.428 53.845 C 221.085 53.976,220.905 54.246,221.028 54.445 C 221.150 54.643,220.970 54.913,220.628 55.045 C 220.285 55.176,220.105 55.446,220.228 55.645 C 220.350 55.843,220.170 56.113,219.828 56.245 C 219.485 56.376,219.305 56.646,219.428 56.845 C 219.550 57.043,219.370 57.313,219.028 57.445 C 218.685 57.576,218.505 57.846,218.628 58.045 C 218.750 58.243,218.570 58.513,218.228 58.645 C 217.885 58.776,217.705 59.046,217.828 59.245 C 217.950 59.443,217.770 59.713,217.428 59.845 C 217.085 59.976,216.905 60.246,217.028 60.445 C 217.150 60.643,216.970 60.913,216.628 61.045 C 216.285 61.176,216.105 61.446,216.228 61.645 C 216.350 61.843,216.170 62.113,215.828 62.245 C 215.485 62.376,215.305 62.646,215.428 62.845 C 215.550 63.043,215.370 63.313,215.028 63.445 C 214.685 63.576,214.505 63.846,214.628 64.045 C 214.750 64.243,214.570 64.513,214.228 64.645 C 213.885 64.776,213.705 65.046,213.828 65.245 C 213.950 65.443,213.770 65.713,213.428 65.845 C 213.085 65.976,212.905 66.246,213.028 66.445 C 213.150 66.643,212.970 66.913,212.628 67.045 C 212.285 67.176,212.105 67.446,212.228 67.645 C 212.350 67.843,212.170 68.113,211.828 68.245 C 211.485 68.376,211.305 68.646,211.428 68.845 C 211.550 69.043,211.370 69.313,211.028 69.445 C 210.685 69.576,210.505 69.846,210.628 70.045 C 210.750 70.243,210.570 70.513,210.228 70.645 C 209.885 70.776,209.705 71.046,209.828 71.245 C 209.950 71.443,209.770 71.713,209.428 71.845 C 209.085 71.976,208.905 72.246,209.028 72.445 C 209.150 72.643,208.970 72.913,208.628 73.045 C 208.285 73.176,208.105 73.446,208.228 73.645 C 208.350 73.843,208.170 74.113,207.828 74.245 C 207.485 74.376,207.305 74.646,207.428 74.845 C 207.550 75.043,207.370 75.313,207.028 75.445 C 206.685 75.576,206.505 75.846,206.628 76.045 C 206.750 76.243,206.570 76.513,206.228 76.645 C 205.885 76.776,205.703 77.043,205.824 77.239 C 205.944 77.434,205.547 78.090,204.940 78.697 C 204.333 79.303,203.873 79.845,203.918 79.900 C 204.160 80.196,203.950 80.816,203.667 80.641 C 203.483 80.528,203.330 80.652,203.326 80.918 C 203.314 81.631,200.042 86.400,199.563 86.400 C 199.338 86.400,199.247 86.553,199.363 86.739 C 199.478 86.926,199.229 87.447,198.810 87.897 C 198.391 88.347,198.153 88.820,198.281 88.948 C 198.410 89.076,198.220 89.294,197.860 89.432 C 197.499 89.571,197.290 89.822,197.395 89.992 C 197.499 90.161,197.157 90.761,196.634 91.325 C 196.112 91.889,195.781 92.447,195.899 92.566 C 196.018 92.684,195.820 92.894,195.460 93.032 C 195.099 93.171,194.905 93.446,195.028 93.645 C 195.150 93.843,194.970 94.113,194.628 94.245 C 194.285 94.376,194.105 94.646,194.228 94.845 C 194.350 95.043,194.170 95.313,193.828 95.445 C 193.485 95.576,193.305 95.846,193.428 96.045 C 193.550 96.243,193.370 96.513,193.028 96.645 C 192.685 96.776,192.505 97.046,192.628 97.245 C 192.750 97.443,192.570 97.713,192.228 97.845 C 191.885 97.976,191.705 98.246,191.828 98.445 C 191.950 98.643,191.770 98.913,191.428 99.045 C 191.085 99.176,190.905 99.446,191.028 99.645 C 191.150 99.843,190.970 100.113,190.628 100.245 C 190.285 100.376,190.105 100.646,190.228 100.845 C 190.350 101.043,190.170 101.313,189.828 101.445 C 189.485 101.576,189.305 101.846,189.428 102.045 C 189.550 102.243,189.370 102.513,189.028 102.645 C 188.685 102.776,188.505 103.046,188.628 103.245 C 188.750 103.443,188.570 103.713,188.228 103.845 C 187.885 103.976,187.705 104.246,187.828 104.445 C 187.950 104.643,187.770 104.913,187.428 105.045 C 187.085 105.176,186.905 105.446,187.028 105.645 C 187.150 105.843,186.970 106.113,186.628 106.245 C 186.285 106.376,186.105 106.646,186.228 106.845 C 186.350 107.043,186.170 107.313,185.828 107.445 C 185.485 107.576,185.305 107.846,185.428 108.045 C 185.550 108.243,185.370 108.513,185.028 108.645 C 184.685 108.776,184.505 109.046,184.628 109.245 C 184.750 109.443,184.570 109.713,184.228 109.845 C 183.885 109.976,183.705 110.246,183.828 110.445 C 183.950 110.643,183.770 110.913,183.428 111.045 C 183.085 111.176,182.904 111.445,183.026 111.642 C 183.148 111.839,183.066 112.000,182.843 112.000 C 182.621 112.000,182.296 111.743,182.120 111.428 C 181.808 110.872,181.655 110.800,180.776 110.800 C 180.543 110.800,180.481 110.592,180.638 110.338 C 180.812 110.057,180.748 109.985,180.476 110.153 C 180.230 110.305,179.663 110.063,179.215 109.615 C 178.767 109.167,178.394 108.935,178.387 109.100 C 178.380 109.265,178.103 109.040,177.770 108.600 C 177.438 108.160,177.081 107.849,176.979 107.908 C 176.627 108.112,174.400 106.780,174.400 106.366 C 174.400 106.139,174.219 106.065,173.997 106.202 C 173.776 106.339,173.487 106.170,173.355 105.828 C 173.224 105.485,172.962 105.300,172.773 105.417 C 172.584 105.534,172.063 105.263,171.615 104.815 C 171.167 104.367,170.794 104.135,170.787 104.300 C 170.780 104.465,170.503 104.240,170.170 103.800 C 169.838 103.360,169.481 103.049,169.379 103.108 C 169.027 103.312,166.800 101.980,166.800 101.566 C 166.800 101.339,166.619 101.265,166.397 101.402 C 166.176 101.539,165.898 101.399,165.780 101.092 C 165.662 100.785,165.343 100.533,165.070 100.533 C 164.354 100.533,162.400 99.182,162.400 98.687 C 162.400 98.456,162.292 98.374,162.161 98.506 C 161.848 98.819,158.000 96.448,158.000 95.942 C 158.000 95.728,157.860 95.639,157.689 95.745 C 157.323 95.971,153.130 93.404,153.409 93.124 C 153.514 93.019,153.369 92.933,153.088 92.933 C 152.409 92.933,150.400 91.604,150.400 91.154 C 150.400 90.959,150.265 90.821,150.100 90.847 C 149.354 90.965,148.771 90.771,148.959 90.467 C 149.072 90.283,148.942 90.133,148.670 90.133 C 148.058 90.133,146.000 88.813,146.000 88.421 C 146.000 88.263,145.771 88.133,145.492 88.133 C 144.880 88.133,141.600 86.010,141.600 85.614 C 141.600 85.459,141.369 85.333,141.088 85.333 C 140.390 85.333,138.400 83.998,138.400 83.530 C 138.400 83.323,138.219 83.265,137.997 83.402 C 137.776 83.539,137.498 83.399,137.380 83.092 C 137.262 82.785,136.943 82.533,136.670 82.533 C 136.058 82.533,134.000 81.213,134.000 80.821 C 134.000 80.663,133.775 80.527,133.500 80.520 C 132.847 80.502,121.572 73.361,121.814 73.119 C 121.917 73.017,121.775 72.930,121.500 72.925 C 120.654 72.911,114.003 68.533,114.311 68.192 C 114.470 68.016,114.415 67.976,114.189 68.104 C 113.749 68.354,109.490 65.844,109.809 65.524 C 109.914 65.419,109.775 65.330,109.500 65.326 C 109.225 65.322,101.890 60.825,93.200 55.333 C 84.510 49.841,77.209 45.235,76.976 45.097 C 76.614 44.883,63.421 64.181,24.196 122.297 C 21.114 126.864,15.638 134.968,12.027 140.306 L 5.463 150.013 6.315 150.806 C 6.783 151.243,7.354 151.600,7.583 151.600 C 7.812 151.600,8.000 151.791,8.000 152.024 C 8.000 152.257,8.180 152.336,8.400 152.200 C 8.620 152.064,8.800 152.126,8.800 152.338 C 8.800 152.770,14.921 156.800,15.578 156.800 C 15.810 156.800,16.000 156.980,16.000 157.200 C 16.000 157.420,16.178 157.600,16.395 157.600 C 16.613 157.600,17.108 157.871,17.495 158.203 C 17.883 158.535,18.331 158.810,18.490 158.814 C 18.650 158.817,19.258 159.263,19.841 159.803 C 20.424 160.343,21.039 160.699,21.208 160.595 C 21.378 160.490,21.624 160.685,21.755 161.028 C 21.887 161.370,22.157 161.550,22.355 161.428 C 22.554 161.305,22.824 161.485,22.955 161.828 C 23.087 162.170,23.376 162.339,23.597 162.202 C 23.819 162.065,24.000 162.143,24.000 162.376 C 24.000 162.609,24.270 162.800,24.600 162.800 C 24.930 162.800,25.200 162.980,25.200 163.200 C 25.200 163.420,25.470 163.600,25.800 163.600 C 26.130 163.600,26.400 163.780,26.400 164.000 C 26.400 164.220,26.670 164.400,27.000 164.400 C 27.330 164.400,27.600 164.591,27.600 164.824 C 27.600 165.057,27.781 165.135,28.003 164.998 C 28.224 164.861,28.513 165.030,28.645 165.372 C 28.776 165.715,29.026 165.907,29.200 165.800 C 29.374 165.693,29.624 165.885,29.755 166.228 C 29.887 166.570,30.157 166.750,30.355 166.628 C 30.554 166.505,30.824 166.685,30.955 167.028 C 31.087 167.370,31.357 167.550,31.555 167.428 C 31.754 167.305,32.024 167.485,32.155 167.828 C 32.287 168.170,32.557 168.350,32.755 168.228 C 32.954 168.105,33.224 168.285,33.355 168.628 C 33.487 168.970,33.776 169.139,33.997 169.002 C 34.219 168.865,34.400 168.943,34.400 169.176 C 34.400 169.409,34.670 169.600,35.000 169.600 C 35.330 169.600,35.600 169.791,35.600 170.024 C 35.600 170.257,35.781 170.335,36.003 170.198 C 36.224 170.061,36.514 170.231,36.646 170.575 C 36.778 170.919,37.136 171.200,37.443 171.200 C 37.749 171.200,38.000 171.391,38.000 171.624 C 38.000 171.857,38.181 171.935,38.403 171.798 C 38.624 171.661,38.913 171.830,39.045 172.172 C 39.176 172.515,39.426 172.707,39.600 172.600 C 39.774 172.493,40.024 172.685,40.155 173.028 C 40.287 173.370,40.557 173.550,40.755 173.428 C 40.954 173.305,41.224 173.485,41.355 173.828 C 41.487 174.170,41.776 174.339,41.997 174.202 C 42.219 174.065,42.400 174.143,42.400 174.376 C 42.400 174.609,42.670 174.800,43.000 174.800 C 43.330 174.800,43.600 174.980,43.600 175.200 C 43.600 175.420,43.870 175.600,44.200 175.600 C 44.530 175.600,44.800 175.780,44.800 176.000 C 44.800 176.220,45.070 176.400,45.400 176.400 C 45.730 176.400,46.000 176.591,46.000 176.824 C 46.000 177.057,46.181 177.135,46.403 176.998 C 46.624 176.861,46.913 177.030,47.045 177.372 C 47.176 177.715,47.446 177.895,47.645 177.772 C 47.843 177.650,48.113 177.830,48.245 178.172 C 48.376 178.515,48.646 178.695,48.845 178.572 C 49.043 178.450,49.313 178.630,49.445 178.972 C 49.576 179.315,49.846 179.495,50.045 179.372 C 50.243 179.250,50.513 179.430,50.645 179.772 C 50.776 180.115,51.026 180.307,51.200 180.200 C 51.374 180.093,51.624 180.285,51.755 180.628 C 51.887 180.970,52.157 181.150,52.355 181.028 C 52.554 180.905,52.824 181.085,52.955 181.428 C 53.087 181.770,53.376 181.939,53.597 181.802 C 53.819 181.665,54.000 181.743,54.000 181.976 C 54.000 182.209,54.270 182.400,54.600 182.400 C 54.930 182.400,55.200 182.580,55.200 182.800 C 55.200 183.020,55.470 183.200,55.800 183.200 C 56.130 183.200,56.400 183.380,56.400 183.600 C 56.400 183.820,56.670 184.000,57.000 184.000 C 57.330 184.000,57.600 184.191,57.600 184.424 C 57.600 184.657,57.781 184.735,58.003 184.598 C 58.224 184.461,58.513 184.630,58.645 184.972 C 58.776 185.315,59.046 185.495,59.245 185.372 C 59.443 185.250,59.713 185.430,59.845 185.772 C 59.976 186.115,60.246 186.295,60.445 186.172 C 60.643 186.050,60.913 186.230,61.045 186.572 C 61.176 186.915,61.446 187.095,61.645 186.972 C 61.843 186.850,62.113 187.030,62.245 187.372 C 62.376 187.715,62.626 187.907,62.800 187.800 C 62.974 187.693,63.224 187.885,63.355 188.228 C 63.487 188.570,63.776 188.739,63.997 188.602 C 64.219 188.465,64.400 188.543,64.400 188.776 C 64.400 189.009,64.670 189.200,65.000 189.200 C 65.330 189.200,65.600 189.380,65.600 189.600 C 65.600 189.820,65.870 190.000,66.200 190.000 C 66.530 190.000,66.800 190.191,66.800 190.424 C 66.800 190.657,66.981 190.735,67.203 190.598 C 67.424 190.461,67.713 190.630,67.845 190.972 C 67.976 191.315,68.246 191.495,68.445 191.372 C 68.643 191.250,68.913 191.430,69.045 191.772 C 69.176 192.115,69.426 192.307,69.600 192.200 C 69.774 192.093,70.024 192.285,70.155 192.628 C 70.287 192.970,70.557 193.150,70.755 193.028 C 70.954 192.905,71.224 193.085,71.355 193.428 C 71.487 193.770,71.748 193.956,71.937 193.839 C 72.125 193.723,72.659 193.981,73.123 194.414 C 73.587 194.846,74.154 195.200,74.383 195.200 C 74.612 195.200,74.800 195.380,74.800 195.600 C 74.800 195.820,75.070 196.000,75.400 196.000 C 75.730 196.000,76.000 196.191,76.000 196.424 C 76.000 196.657,76.181 196.735,76.403 196.598 C 76.624 196.461,76.913 196.630,77.045 196.972 C 77.176 197.315,77.446 197.495,77.645 197.372 C 77.843 197.250,78.113 197.430,78.245 197.772 C 78.376 198.115,78.646 198.295,78.845 198.172 C 79.043 198.050,79.313 198.230,79.445 198.572 C 79.576 198.915,79.846 199.095,80.045 198.972 C 80.243 198.850,80.513 199.030,80.645 199.372 C 80.776 199.715,81.046 199.895,81.245 199.772 C 81.443 199.650,81.713 199.830,81.845 200.172 C 81.976 200.515,82.245 200.696,82.442 200.574 C 82.639 200.452,82.800 200.543,82.800 200.776 C 82.800 201.009,83.070 201.200,83.400 201.200 C 83.730 201.200,84.000 201.391,84.000 201.624 C 84.000 201.857,84.181 201.935,84.403 201.798 C 84.624 201.661,84.913 201.830,85.045 202.172 C 85.176 202.515,85.446 202.695,85.645 202.572 C 85.843 202.450,86.113 202.630,86.245 202.972 C 86.376 203.315,86.646 203.495,86.845 203.372 C 87.043 203.250,87.313 203.430,87.445 203.772 C 87.576 204.115,87.846 204.295,88.045 204.172 C 88.243 204.050,88.513 204.230,88.645 204.572 C 88.776 204.915,89.046 205.095,89.245 204.972 C 89.443 204.850,89.713 205.030,89.845 205.372 C 89.976 205.715,90.234 205.903,90.417 205.789 C 90.601 205.676,90.913 205.873,91.111 206.227 C 91.310 206.582,91.593 206.852,91.740 206.828 C 92.268 206.741,94.400 208.029,94.400 208.434 C 94.400 208.661,94.581 208.735,94.803 208.598 C 95.024 208.461,95.313 208.630,95.445 208.972 C 95.576 209.315,95.846 209.495,96.045 209.372 C 96.243 209.250,96.513 209.430,96.645 209.772 C 96.776 210.115,97.046 210.295,97.245 210.172 C 97.443 210.050,97.713 210.230,97.845 210.572 C 97.976 210.915,98.246 211.095,98.445 210.972 C 98.643 210.850,98.913 211.030,99.045 211.372 C 99.176 211.715,99.434 211.903,99.617 211.789 C 99.801 211.676,100.113 211.873,100.311 212.227 C 100.510 212.582,100.746 212.822,100.836 212.760 C 101.136 212.557,104.800 214.869,104.800 215.262 C 104.800 215.474,104.981 215.535,105.203 215.398 C 105.424 215.261,105.713 215.430,105.845 215.772 C 105.976 216.115,106.246 216.295,106.445 216.172 C 106.643 216.050,106.913 216.230,107.045 216.572 C 107.176 216.915,107.434 217.103,107.617 216.989 C 107.801 216.876,108.113 217.073,108.311 217.427 C 108.510 217.782,108.791 218.056,108.936 218.036 C 109.715 217.930,109.896 217.661,51.693 303.362 C 39.443 321.399,37.845 323.992,39.161 323.696 C 39.415 323.639,39.726 323.863,39.853 324.194 C 39.980 324.525,40.218 324.713,40.381 324.612 C 40.545 324.510,41.047 324.771,41.497 325.190 C 41.947 325.609,42.420 325.847,42.548 325.719 C 42.676 325.590,42.894 325.780,43.032 326.140 C 43.171 326.501,43.418 326.713,43.581 326.612 C 43.745 326.510,44.247 326.771,44.697 327.190 C 45.147 327.609,45.620 327.847,45.748 327.719 C 45.876 327.590,46.094 327.780,46.232 328.140 C 46.371 328.501,46.646 328.695,46.845 328.572 C 47.043 328.450,47.313 328.630,47.445 328.972 C 47.576 329.315,47.838 329.500,48.027 329.383 C 48.216 329.266,48.737 329.537,49.185 329.985 C 49.633 330.433,50.006 330.665,50.013 330.500 C 50.020 330.335,50.297 330.560,50.630 331.000 C 50.962 331.440,51.319 331.751,51.421 331.692 C 51.773 331.488,54.000 332.820,54.000 333.234 C 54.000 333.461,54.181 333.535,54.403 333.398 C 54.624 333.261,54.902 333.401,55.020 333.708 C 55.138 334.015,55.457 334.267,55.730 334.267 C 56.342 334.267,58.400 335.587,58.400 335.979 C 58.400 336.137,58.631 336.267,58.912 336.267 C 59.610 336.267,61.600 337.602,61.600 338.070 C 61.600 338.277,61.781 338.335,62.003 338.198 C 62.224 338.061,62.513 338.230,62.645 338.572 C 62.776 338.915,63.038 339.100,63.227 338.983 C 63.416 338.866,63.937 339.137,64.385 339.585 C 64.833 340.033,65.206 340.265,65.213 340.100 C 65.220 339.935,65.497 340.160,65.830 340.600 C 66.162 341.040,66.519 341.351,66.621 341.292 C 66.928 341.115,69.200 342.394,69.200 342.744 C 69.200 342.921,69.429 343.067,69.708 343.067 C 70.320 343.067,73.600 345.190,73.600 345.586 C 73.600 345.741,73.831 345.867,74.112 345.867 C 74.738 345.867,76.800 347.181,76.800 347.579 C 76.800 347.737,77.031 347.867,77.312 347.867 C 78.042 347.867,80.000 349.212,80.000 349.713 C 80.000 349.944,80.108 350.026,80.239 349.894 C 80.517 349.616,84.400 351.924,84.400 352.368 C 84.400 352.532,84.631 352.667,84.912 352.667 C 85.538 352.667,87.600 353.981,87.600 354.379 C 87.600 354.537,87.829 354.667,88.108 354.667 C 88.720 354.667,92.000 356.790,92.000 357.186 C 92.000 357.341,92.231 357.467,92.512 357.467 C 93.138 357.467,95.200 358.781,95.200 359.179 C 95.200 359.337,95.429 359.467,95.708 359.467 C 96.320 359.467,99.600 361.590,99.600 361.986 C 99.600 362.141,99.831 362.267,100.112 362.267 C 100.738 362.267,102.800 363.581,102.800 363.979 C 102.800 364.137,103.031 364.267,103.312 364.267 C 104.010 364.267,106.000 365.602,106.000 366.070 C 106.000 366.277,106.181 366.335,106.403 366.198 C 106.624 366.061,106.902 366.201,107.020 366.508 C 107.138 366.815,107.457 367.067,107.730 367.067 C 108.342 367.067,110.400 368.387,110.400 368.779 C 110.400 368.937,110.625 369.070,110.900 369.075 C 111.555 369.086,118.436 373.431,118.189 373.677 C 118.085 373.781,118.225 373.871,118.500 373.875 C 119.120 373.886,125.600 378.005,125.600 378.388 C 125.600 378.541,125.831 378.667,126.112 378.667 C 126.738 378.667,128.800 379.981,128.800 380.379 C 128.800 380.537,129.025 380.669,129.300 380.671 C 129.932 380.678,136.400 384.778,136.400 385.173 C 136.400 385.335,136.625 385.470,136.900 385.475 C 137.456 385.484,144.431 389.797,144.289 390.044 C 144.240 390.130,144.276 390.154,144.368 390.099 C 144.461 390.043,144.928 390.254,145.407 390.568 C 146.253 391.122,146.498 390.817,154.039 379.816 C 158.308 373.589,161.939 368.576,162.110 368.677 C 162.280 368.777,162.370 368.679,162.310 368.458 C 162.157 367.901,179.327 342.858,179.710 343.080 C 179.880 343.179,179.970 343.104,179.910 342.914 C 179.744 342.392,183.738 336.438,184.103 336.663 C 184.277 336.771,184.370 336.704,184.310 336.514 C 184.121 335.921,188.163 330.055,188.593 330.298 C 188.817 330.425,188.874 330.389,188.721 330.218 C 188.367 329.826,193.061 322.800,193.677 322.800 C 193.928 322.800,194.022 322.689,193.886 322.553 C 193.548 322.215,197.511 316.400,198.079 316.400 C 198.329 316.400,198.422 316.289,198.286 316.153 C 197.973 315.840,201.889 310.000,202.412 310.000 C 202.625 310.000,202.755 309.865,202.700 309.700 C 202.520 309.161,204.958 305.650,205.346 305.890 C 205.554 306.019,205.596 305.917,205.440 305.665 C 205.284 305.412,205.607 304.757,206.160 304.203 C 206.712 303.652,207.075 303.200,206.967 303.200 C 206.859 303.200,207.504 302.120,208.400 300.800 C 209.296 299.480,210.214 298.400,210.439 298.400 C 210.663 298.400,210.743 298.231,210.615 298.025 C 210.488 297.818,210.644 297.503,210.963 297.325 C 211.282 297.146,211.544 296.858,211.545 296.683 C 211.550 295.976,213.795 292.874,214.146 293.090 C 214.354 293.219,214.396 293.117,214.240 292.865 C 214.084 292.612,214.407 291.957,214.960 291.403 C 215.512 290.852,215.837 290.394,215.682 290.387 C 215.527 290.380,215.727 290.127,216.127 289.824 C 216.526 289.521,216.834 289.162,216.810 289.027 C 216.736 288.606,218.154 286.400,218.499 286.400 C 219.059 286.400,232.036 295.031,231.812 295.255 C 231.695 295.371,231.825 295.469,232.100 295.473 C 232.777 295.481,262.874 315.392,262.610 315.657 C 262.494 315.772,262.628 315.867,262.907 315.867 C 263.795 315.867,321.948 354.559,321.705 354.989 C 321.577 355.215,321.621 355.264,321.804 355.099 C 321.987 354.933,322.558 355.074,323.075 355.412 C 324.050 356.051,326.338 354.470,325.769 353.550 C 325.650 353.357,325.719 353.200,325.923 353.200 C 326.371 353.200,328.541 350.005,328.106 349.988 C 327.938 349.981,328.119 349.790,328.508 349.563 C 328.898 349.336,329.124 349.001,329.011 348.817 C 328.897 348.634,329.085 348.376,329.428 348.245 C 329.770 348.113,329.950 347.843,329.828 347.645 C 329.705 347.446,329.885 347.176,330.228 347.045 C 330.570 346.913,330.750 346.643,330.628 346.445 C 330.505 346.246,330.685 345.976,331.028 345.845 C 331.370 345.713,331.550 345.443,331.428 345.245 C 331.305 345.046,331.485 344.776,331.828 344.645 C 332.170 344.513,332.339 344.224,332.202 344.003 C 332.065 343.781,332.125 343.600,332.335 343.600 C 332.781 343.600,335.448 339.560,335.300 339.107 C 335.245 338.938,335.360 338.800,335.555 338.800 C 335.867 338.800,339.200 333.840,339.200 333.377 C 339.200 333.280,339.491 332.885,339.847 332.500 C 340.203 332.115,344.478 325.769,349.347 318.398 C 354.216 311.026,366.293 292.776,376.184 277.841 C 386.075 262.905,394.206 250.396,394.253 250.043 C 394.325 249.495,310.933 193.261,309.743 193.055 C 309.568 193.025,308.986 192.593,308.450 192.096 C 307.914 191.599,307.402 191.265,307.313 191.354 C 307.224 191.443,306.689 191.088,306.125 190.566 C 305.561 190.043,304.961 189.701,304.792 189.805 C 304.622 189.910,304.376 189.715,304.245 189.372 C 304.113 189.030,303.843 188.850,303.645 188.972 C 303.446 189.095,303.176 188.915,303.045 188.572 C 302.913 188.230,302.643 188.050,302.445 188.172 C 302.246 188.295,301.976 188.115,301.845 187.772 C 301.713 187.430,301.443 187.250,301.245 187.372 C 301.046 187.495,300.771 187.301,300.632 186.940 C 300.494 186.580,300.284 186.382,300.166 186.501 C 300.047 186.619,299.489 186.288,298.925 185.766 C 298.361 185.243,297.761 184.901,297.592 185.005 C 297.422 185.110,297.176 184.915,297.045 184.572 C 296.913 184.230,296.624 184.061,296.403 184.198 C 296.181 184.335,296.000 184.281,296.000 184.077 C 296.000 183.873,295.280 183.230,294.400 182.647 C 293.520 182.065,292.800 181.716,292.800 181.871 C 292.800 182.026,292.546 181.805,292.235 181.380 C 291.677 180.618,292.364 178.483,293.300 178.067 C 293.465 177.993,293.600 177.761,293.600 177.550 C 293.600 177.339,293.954 176.787,294.386 176.323 C 294.819 175.859,295.077 175.325,294.961 175.137 C 294.844 174.948,295.030 174.687,295.372 174.555 C 295.715 174.424,295.907 174.174,295.800 174.000 C 295.693 173.826,295.885 173.576,296.228 173.445 C 296.570 173.313,296.739 173.024,296.602 172.803 C 296.465 172.581,296.519 172.400,296.723 172.400 C 297.171 172.400,299.341 169.205,298.906 169.188 C 298.738 169.181,298.919 168.990,299.308 168.763 C 299.698 168.536,299.924 168.201,299.811 168.017 C 299.697 167.834,299.885 167.576,300.228 167.445 C 300.570 167.313,300.750 167.043,300.628 166.845 C 300.505 166.646,300.699 166.371,301.060 166.232 C 301.420 166.094,301.618 165.884,301.499 165.766 C 301.381 165.647,301.681 165.122,302.167 164.598 C 302.652 164.074,303.398 162.960,303.825 162.123 C 304.251 161.285,304.705 160.510,304.832 160.400 C 305.407 159.905,309.193 154.000,308.936 154.000 C 308.777 154.000,308.934 153.775,309.285 153.500 C 309.636 153.225,314.841 145.530,320.851 136.400 C 326.861 127.270,334.663 115.438,338.189 110.108 C 355.815 83.460,358.800 78.876,358.800 78.455 C 358.800 78.205,358.980 78.000,359.200 78.000 C 359.420 78.000,359.600 77.809,359.600 77.576 C 359.600 77.343,359.435 77.255,359.234 77.379 C 359.033 77.503,358.808 77.469,358.734 77.302 C 358.552 76.891,354.000 73.932,354.000 74.224 C 354.000 74.352,353.738 74.195,353.417 73.874 C 352.563 73.020,342.114 66.400,341.620 66.400 C 341.389 66.400,341.200 66.209,341.200 65.976 C 341.200 65.743,341.039 65.652,340.842 65.774 C 340.645 65.896,340.376 65.715,340.245 65.372 C 340.113 65.030,339.824 64.861,339.603 64.998 C 339.381 65.135,339.200 65.057,339.200 64.824 C 339.200 64.591,339.012 64.400,338.783 64.400 C 338.554 64.400,337.987 64.046,337.523 63.614 C 337.059 63.181,336.545 62.910,336.381 63.012 C 336.218 63.113,335.976 62.915,335.845 62.572 C 335.713 62.230,335.443 62.050,335.245 62.172 C 335.046 62.295,334.771 62.101,334.632 61.740 C 334.494 61.380,334.276 61.190,334.148 61.319 C 334.020 61.447,333.547 61.209,333.097 60.790 C 332.647 60.371,332.145 60.110,331.981 60.212 C 331.818 60.313,331.576 60.115,331.445 59.772 C 331.313 59.430,331.043 59.250,330.845 59.372 C 330.646 59.495,330.376 59.315,330.245 58.972 C 330.113 58.630,329.824 58.461,329.603 58.598 C 329.381 58.735,329.200 58.657,329.200 58.424 C 329.200 58.191,329.012 58.000,328.783 58.000 C 328.554 58.000,327.987 57.646,327.523 57.214 C 327.059 56.781,326.545 56.510,326.381 56.612 C 326.218 56.713,325.976 56.515,325.845 56.172 C 325.713 55.830,325.443 55.650,325.245 55.772 C 325.046 55.895,324.776 55.715,324.645 55.372 C 324.513 55.030,324.224 54.861,324.003 54.998 C 323.781 55.135,323.600 55.057,323.600 54.824 C 323.600 54.591,323.330 54.400,323.000 54.400 C 322.670 54.400,322.400 54.190,322.400 53.933 C 322.400 53.677,322.299 53.568,322.175 53.691 C 322.052 53.815,321.489 53.488,320.925 52.966 C 320.361 52.443,319.742 52.112,319.550 52.231 C 319.357 52.350,319.200 52.257,319.200 52.024 C 319.200 51.791,319.012 51.600,318.783 51.600 C 318.554 51.600,317.987 51.246,317.523 50.814 C 317.059 50.381,316.545 50.110,316.381 50.212 C 316.218 50.313,315.976 50.115,315.845 49.772 C 315.713 49.430,315.424 49.261,315.203 49.398 C 314.981 49.535,314.800 49.457,314.800 49.224 C 314.800 48.991,314.530 48.800,314.200 48.800 C 313.870 48.800,313.600 48.620,313.600 48.400 C 313.600 48.180,313.330 48.000,313.000 48.000 C 312.670 48.000,312.400 47.809,312.400 47.576 C 312.400 47.343,312.239 47.252,312.042 47.374 C 311.845 47.496,311.576 47.315,311.445 46.972 C 311.313 46.630,311.043 46.450,310.845 46.572 C 310.646 46.695,310.376 46.515,310.245 46.172 C 310.113 45.830,309.824 45.661,309.603 45.798 C 309.381 45.935,309.200 45.857,309.200 45.624 C 309.200 45.391,308.930 45.200,308.600 45.200 C 308.270 45.200,308.000 45.009,308.000 44.776 C 308.000 44.543,307.839 44.452,307.642 44.574 C 307.445 44.696,307.176 44.515,307.045 44.172 C 306.913 43.830,306.643 43.650,306.445 43.772 C 306.246 43.895,305.976 43.715,305.845 43.372 C 305.713 43.030,305.424 42.861,305.203 42.998 C 304.981 43.135,304.800 43.057,304.800 42.824 C 304.800 42.591,304.530 42.400,304.200 42.400 C 303.870 42.400,303.600 42.209,303.600 41.976 C 303.600 41.743,303.419 41.665,303.197 41.802 C 302.976 41.939,302.687 41.770,302.555 41.428 C 302.424 41.085,302.154 40.905,301.955 41.028 C 301.757 41.150,301.487 40.970,301.355 40.628 C 301.224 40.285,300.955 40.104,300.758 40.226 C 300.561 40.348,300.400 40.257,300.400 40.024 C 300.400 39.791,300.130 39.600,299.800 39.600 C 299.470 39.600,299.200 39.409,299.200 39.176 C 299.200 38.943,299.019 38.865,298.797 39.002 C 298.576 39.139,298.287 38.970,298.155 38.628 C 298.024 38.285,297.754 38.105,297.555 38.228 C 297.357 38.350,297.087 38.170,296.955 37.828 C 296.824 37.485,296.555 37.304,296.358 37.426 C 296.161 37.548,296.000 37.457,296.000 37.224 C 296.000 36.991,295.730 36.800,295.400 36.800 C 295.070 36.800,294.800 36.620,294.800 36.400 C 294.800 36.180,294.530 36.000,294.200 36.000 C 293.870 36.000,293.600 35.809,293.600 35.576 C 293.600 35.343,293.419 35.265,293.197 35.402 C 292.976 35.539,292.687 35.370,292.555 35.028 C 292.424 34.685,292.182 34.487,292.019 34.588 C 291.855 34.690,291.341 34.419,290.877 33.986 C 290.413 33.554,289.846 33.200,289.617 33.200 C 289.388 33.200,289.200 33.009,289.200 32.776 C 289.200 32.543,289.019 32.465,288.797 32.602 C 288.576 32.739,288.287 32.570,288.155 32.228 C 288.024 31.885,287.754 31.705,287.555 31.828 C 287.357 31.950,287.087 31.770,286.955 31.428 C 286.824 31.085,286.555 30.904,286.358 31.026 C 286.161 31.148,286.000 31.057,286.000 30.824 C 286.000 30.591,285.730 30.400,285.400 30.400 C 285.070 30.400,284.800 30.209,284.800 29.976 C 284.800 29.743,284.619 29.665,284.397 29.802 C 284.176 29.939,283.887 29.770,283.755 29.428 C 283.624 29.085,283.354 28.905,283.155 29.028 C 282.957 29.150,282.687 28.970,282.555 28.628 C 282.424 28.285,282.155 28.104,281.958 28.226 C 281.761 28.348,281.600 28.257,281.600 28.024 C 281.600 27.791,281.330 27.600,281.000 27.600 C 280.670 27.600,280.400 27.420,280.400 27.200 C 280.400 26.980,280.130 26.800,279.800 26.800 C 279.470 26.800,279.200 26.609,279.200 26.376 C 279.200 26.143,279.019 26.065,278.797 26.202 C 278.576 26.339,278.287 26.170,278.155 25.828 C 278.024 25.485,277.754 25.305,277.555 25.428 C 277.357 25.550,277.087 25.370,276.955 25.028 C 276.824 24.685,276.555 24.504,276.358 24.626 C 276.161 24.748,276.000 24.646,276.000 24.400 C 276.000 24.154,275.819 24.065,275.597 24.202 C 275.376 24.339,275.087 24.170,274.955 23.828 C 274.824 23.485,274.554 23.305,274.355 23.428 C 274.157 23.550,273.887 23.370,273.755 23.028 C 273.624 22.685,273.354 22.505,273.155 22.628 C 272.957 22.750,272.687 22.570,272.555 22.228 C 272.424 21.885,272.182 21.687,272.019 21.788 C 271.855 21.890,271.353 21.629,270.903 21.210 C 270.453 20.791,269.980 20.553,269.852 20.681 C 269.724 20.810,269.506 20.620,269.368 20.260 C 269.229 19.899,268.954 19.705,268.755 19.828 C 268.557 19.950,268.287 19.770,268.155 19.428 C 268.024 19.085,267.754 18.905,267.555 19.028 C 267.357 19.150,267.087 18.970,266.955 18.628 C 266.824 18.285,266.562 18.100,266.373 18.217 C 266.184 18.334,265.678 18.078,265.248 17.648 C 264.818 17.218,264.366 16.967,264.243 17.091 C 264.120 17.214,263.906 17.020,263.768 16.660 C 263.629 16.299,263.354 16.105,263.155 16.228 C 262.957 16.350,262.687 16.170,262.555 15.828 C 262.424 15.485,262.155 15.304,261.958 15.426 C 261.761 15.548,261.600 15.457,261.600 15.224 C 261.600 14.991,261.330 14.800,261.000 14.800 C 260.670 14.800,260.400 14.620,260.400 14.400 C 260.400 14.180,260.130 14.000,259.800 14.000 C 259.470 14.000,259.200 13.809,259.200 13.576 C 259.200 13.343,259.019 13.265,258.797 13.402 C 258.576 13.539,258.287 13.370,258.155 13.028 C 258.024 12.685,257.782 12.487,257.619 12.588 C 257.455 12.690,256.953 12.429,256.503 12.010 C 256.053 11.591,255.580 11.353,255.452 11.481 C 255.324 11.610,255.106 11.420,254.968 11.060 C 254.829 10.699,254.554 10.505,254.355 10.628 C 254.157 10.750,253.887 10.570,253.755 10.228 C 253.624 9.885,253.367 9.696,253.186 9.809 C 253.004 9.921,252.742 9.830,252.604 9.607 C 252.100 8.792,251.188 9.236,250.153 10.800 " stroke="none" fill="#dcb46c" fill-rule="evenodd"></path><path id="path1" d="M250.435 9.700 C 250.129 10.195,249.622 11.050,249.308 11.600 L 248.739 12.600 249.470 11.600 C 249.871 11.050,250.597 10.195,251.082 9.700 C 251.567 9.205,251.745 8.800,251.478 8.800 C 251.211 8.800,250.742 9.205,250.435 9.700 M246.934 15.100 C 246.134 16.365,245.111 17.928,244.661 18.572 C 244.211 19.217,244.040 19.623,244.280 19.474 C 244.779 19.166,248.887 12.800,248.587 12.800 C 248.479 12.800,247.735 13.835,246.934 15.100 M233.535 35.300 C 225.059 48.024,224.037 49.604,224.678 49.000 C 225.436 48.286,241.773 23.600,241.488 23.600 C 241.401 23.600,237.822 28.865,233.535 35.300 M76.833 44.946 C 76.925 45.026,82.220 48.388,88.600 52.416 C 94.980 56.444,106.500 63.724,114.200 68.594 C 129.316 78.154,129.609 78.334,129.000 77.703 C 128.780 77.475,119.510 71.535,108.400 64.503 C 97.290 57.472,85.746 50.162,82.746 48.259 C 79.747 46.357,77.152 44.800,76.980 44.800 C 76.808 44.800,76.742 44.866,76.833 44.946 M130.374 78.724 C 130.909 79.159,131.899 79.819,132.574 80.191 L 133.800 80.867 132.826 80.076 C 132.291 79.641,131.301 78.981,130.626 78.609 L 129.400 77.933 130.374 78.724 M202.985 81.300 C 202.368 82.235,202.120 82.789,202.432 82.531 C 203.033 82.034,204.564 79.600,204.276 79.600 C 204.183 79.600,203.602 80.365,202.985 81.300 M134.600 81.407 C 135.040 81.766,135.760 82.235,136.200 82.451 L 137.000 82.844 136.200 82.193 C 135.760 81.834,135.040 81.365,134.600 81.149 L 133.800 80.756 134.600 81.407 M200.585 84.900 C 199.968 85.835,199.720 86.389,200.032 86.131 C 200.633 85.634,202.164 83.200,201.876 83.200 C 201.783 83.200,201.202 83.965,200.585 84.900 M139.000 84.207 C 139.440 84.566,140.160 85.035,140.600 85.251 L 141.400 85.644 140.600 84.993 C 140.160 84.634,139.440 84.165,139.000 83.949 L 138.200 83.556 139.000 84.207 M142.374 86.324 C 142.909 86.759,143.899 87.419,144.574 87.791 L 145.800 88.467 144.826 87.676 C 144.291 87.241,143.301 86.581,142.626 86.209 L 141.400 85.533 142.374 86.324 M146.774 89.124 C 147.309 89.559,148.299 90.219,148.974 90.591 L 150.200 91.267 149.226 90.476 C 148.691 90.041,147.701 89.381,147.026 89.009 L 145.800 88.333 146.774 89.124 M150.400 91.318 C 150.400 91.434,151.615 92.293,153.100 93.227 C 154.585 94.161,156.205 95.188,156.700 95.509 C 157.195 95.830,157.600 95.997,157.600 95.882 C 157.600 95.766,156.385 94.907,154.900 93.973 C 153.415 93.039,151.795 92.012,151.300 91.691 C 150.805 91.370,150.400 91.203,150.400 91.318 M158.600 96.607 C 159.040 96.966,159.760 97.435,160.200 97.651 L 161.000 98.044 160.200 97.393 C 159.760 97.034,159.040 96.565,158.600 96.349 L 157.800 95.956 158.600 96.607 M163.000 99.407 C 163.440 99.766,164.160 100.235,164.600 100.451 L 165.400 100.844 164.600 100.193 C 164.160 99.834,163.440 99.365,163.000 99.149 L 162.200 98.756 163.000 99.407 M179.400 109.807 C 179.840 110.166,180.560 110.635,181.000 110.851 L 181.800 111.244 181.000 110.593 C 180.560 110.234,179.840 109.765,179.400 109.549 L 178.600 109.156 179.400 109.807 M217.276 287.905 L 216.352 289.400 217.498 288.060 L 218.645 286.720 233.422 296.489 C 253.181 309.552,305.407 344.145,315.388 350.781 C 323.890 356.435,324.400 356.732,324.400 356.043 C 324.400 355.799,324.261 355.645,324.092 355.700 C 323.922 355.755,300.181 340.185,271.333 321.100 C 242.485 302.015,218.729 286.402,218.541 286.405 C 218.354 286.408,217.784 287.083,217.276 287.905 M213.200 293.800 C 212.087 295.450,211.266 296.800,211.376 296.800 C 211.486 296.800,212.487 295.450,213.600 293.800 C 214.713 292.150,215.534 290.800,215.424 290.800 C 215.314 290.800,214.313 292.150,213.200 293.800 M208.400 300.800 C 207.504 302.120,206.860 303.200,206.970 303.200 C 207.080 303.200,207.904 302.120,208.800 300.800 C 209.696 299.480,210.340 298.400,210.230 298.400 C 210.120 298.400,209.296 299.480,208.400 300.800 M204.400 306.600 C 203.287 308.250,202.466 309.600,202.576 309.600 C 202.686 309.600,203.687 308.250,204.800 306.600 C 205.913 304.950,206.734 303.600,206.624 303.600 C 206.514 303.600,205.513 304.950,204.400 306.600 M200.000 313.000 C 198.887 314.650,198.066 316.000,198.176 316.000 C 198.286 316.000,199.287 314.650,200.400 313.000 C 201.513 311.350,202.334 310.000,202.224 310.000 C 202.114 310.000,201.113 311.350,200.000 313.000 M195.600 319.400 C 194.487 321.050,193.666 322.400,193.776 322.400 C 193.886 322.400,194.887 321.050,196.000 319.400 C 197.113 317.750,197.934 316.400,197.824 316.400 C 197.714 316.400,196.713 317.750,195.600 319.400 M170.110 356.500 C 157.368 375.035,146.794 390.470,146.612 390.800 C 145.512 392.804,148.319 388.844,158.242 374.400 C 191.290 326.291,193.672 322.800,193.458 322.800 C 193.359 322.800,182.853 337.965,170.110 356.500 M56.200 334.607 C 56.640 334.966,57.360 335.435,57.800 335.651 L 58.600 336.044 57.800 335.393 C 57.360 335.034,56.640 334.565,56.200 334.349 L 55.400 333.956 56.200 334.607 M59.400 336.607 C 59.840 336.966,60.560 337.435,61.000 337.651 L 61.800 338.044 61.000 337.393 C 60.560 337.034,59.840 336.565,59.400 336.349 L 58.600 335.956 59.400 336.607 M70.374 343.524 C 70.909 343.959,71.899 344.619,72.574 344.991 L 73.800 345.667 72.826 344.876 C 72.291 344.441,71.301 343.781,70.626 343.409 L 69.400 342.733 70.374 343.524 M74.600 346.207 C 75.040 346.566,75.760 347.035,76.200 347.251 L 77.000 347.644 76.200 346.993 C 75.760 346.634,75.040 346.165,74.600 345.949 L 73.800 345.556 74.600 346.207 M77.800 348.207 C 78.240 348.566,78.960 349.035,79.400 349.251 L 80.200 349.644 79.400 348.993 C 78.960 348.634,78.240 348.165,77.800 347.949 L 77.000 347.556 77.800 348.207 M82.200 351.007 C 82.640 351.366,83.360 351.835,83.800 352.051 L 84.600 352.444 83.800 351.793 C 83.360 351.434,82.640 350.965,82.200 350.749 L 81.400 350.356 82.200 351.007 M85.400 353.007 C 85.840 353.366,86.560 353.835,87.000 354.051 L 87.800 354.444 87.000 353.793 C 86.560 353.434,85.840 352.965,85.400 352.749 L 84.600 352.356 85.400 353.007 M88.774 355.124 C 89.309 355.559,90.299 356.219,90.974 356.591 L 92.200 357.267 91.226 356.476 C 90.691 356.041,89.701 355.381,89.026 355.009 L 87.800 354.333 88.774 355.124 M93.000 357.807 C 93.440 358.166,94.160 358.635,94.600 358.851 L 95.400 359.244 94.600 358.593 C 94.160 358.234,93.440 357.765,93.000 357.549 L 92.200 357.156 93.000 357.807 M96.374 359.924 C 96.909 360.359,97.899 361.019,98.574 361.391 L 99.800 362.067 98.826 361.276 C 98.291 360.841,97.301 360.181,96.626 359.809 L 95.400 359.133 96.374 359.924 M100.600 362.607 C 101.040 362.966,101.760 363.435,102.200 363.651 L 103.000 364.044 102.200 363.393 C 101.760 363.034,101.040 362.565,100.600 362.349 L 99.800 361.956 100.600 362.607 M103.800 364.607 C 104.240 364.966,104.960 365.435,105.400 365.651 L 106.200 366.044 105.400 365.393 C 104.960 365.034,104.240 364.565,103.800 364.349 L 103.000 363.956 103.800 364.607 M108.200 367.407 C 108.640 367.766,109.360 368.235,109.800 368.451 L 110.600 368.844 109.800 368.193 C 109.360 367.834,108.640 367.365,108.200 367.149 L 107.400 366.756 108.200 367.407 M110.800 368.919 C 110.800 369.035,112.915 370.461,115.500 372.089 C 118.085 373.717,120.695 375.373,121.300 375.770 C 121.905 376.167,122.400 376.394,122.400 376.275 C 122.400 376.155,120.195 374.665,117.500 372.963 C 114.805 371.260,112.195 369.607,111.700 369.288 C 111.205 368.969,110.800 368.803,110.800 368.919 M123.400 377.007 C 123.840 377.366,124.560 377.835,125.000 378.051 L 125.800 378.444 125.000 377.793 C 124.560 377.434,123.840 376.965,123.400 376.749 L 122.600 376.356 123.400 377.007 M126.600 379.007 C 127.040 379.366,127.760 379.835,128.200 380.051 L 129.000 380.444 128.200 379.793 C 127.760 379.434,127.040 378.965,126.600 378.749 L 125.800 378.356 126.600 379.007 M129.200 380.518 C 129.200 380.634,130.415 381.493,131.900 382.427 C 133.385 383.361,135.005 384.388,135.500 384.709 C 135.995 385.030,136.400 385.197,136.400 385.082 C 136.400 384.966,135.185 384.107,133.700 383.173 C 132.215 382.239,130.595 381.212,130.100 380.891 C 129.605 380.570,129.200 380.403,129.200 380.518 M136.800 385.322 C 136.800 385.439,138.645 386.688,140.900 388.096 C 146.065 391.321,146.000 391.283,146.000 391.064 C 146.000 390.963,144.335 389.847,142.300 388.583 C 140.265 387.319,138.195 386.020,137.700 385.696 C 137.205 385.373,136.800 385.204,136.800 385.322 " stroke="none" fill="#dcbc76" fill-rule="evenodd"></path></g></svg>